<?xml version="1.0" ?><svg viewBox="0 0 4680 3120" xmlns="http://www.w3.org/2000/svg" xmlns:xlink="http://www.w3.org/1999/xlink"><defs><style>.cls-1{fill:none;}.cls-2,.cls-23{fill:#fff;}.cls-2{opacity:0;}.cls-3{fill:#f5c9de;}.cls-4{fill:#f0f0f8;}.cls-5{fill:#b89ab3;}.cls-40,.cls-5,.cls-9{opacity:0.5;}.cls-44,.cls-6{fill:#a5aad5;}.cls-7{fill:#7f90c8;}.cls-8{fill:#f2f3f9;}.cls-10{fill:#bac2e2;}.cls-11{fill:#fdeae9;}.cls-12{opacity:0.58;}.cls-13{fill:#f7ad9f;}.cls-14{fill:#faba97;}.cls-15{fill:#fcba49;}.cls-16{fill:#f69134;}.cls-17{fill:#273c86;}.cls-18{fill:#23799b;}.cls-19{fill:#f08743;}.cls-20{fill:#225151;}.cls-21{fill:#06b49b;}.cls-22{fill:#0c8178;}.cls-24{opacity:0.55;}.cls-25{fill:#f79833;}.cls-26{fill:#f16754;}.cls-27{fill:#314272;}.cls-28{fill:#3d5288;}.cls-29{fill:#a9b7dd;}.cls-30{fill:#7383c1;}.cls-31,.cls-44{opacity:0.3;}.cls-32{fill:#464a4d;}.cls-33{fill:#f5f5f5;}.cls-34{fill:#0c9482;}.cls-35{fill:#0da79b;}.cls-36{fill:#3ebdac;}.cls-37{fill:#7dcab5;}.cls-38{fill:#f9cb11;}.cls-39{clip-path:url(#clip-path);}.cls-40{fill:#f69125;}.cls-41{fill:#bc1d85;}.cls-42{fill:#d64e9b;}.cls-43{fill:#f8e6cf;}.cls-45{fill:#f68633;}.cls-46{fill:#bde3d9;}.cls-47{fill:#e570aa;}.cls-48{fill:#1d6886;}.cls-49{fill:#223063;}.cls-50{fill:#7abfe9;}.cls-51{fill:#d57f2d;}.cls-52{fill:#16215e;}.cls-53{fill:#5b0a39;}.cls-54{fill:#f5927e;}.cls-55,.cls-59{fill:#f08372;}.cls-55{opacity:0.24;}.cls-56{fill:#de7360;}.cls-57{fill:#281c1c;}.cls-58{fill:#383939;}.cls-60{fill:#7d1848;}</style><clipPath id="clip-path"><path class="cls-1" d="M1635.94,2236.33v226.46c0,69.05-52.51,125.55-116.69,125.55H1390.58c-64.18,0-116.69-56.5-116.69-125.55V2236.33Z"/></clipPath></defs><title/><g data-name="10" id="_10"><rect class="cls-2" data-name="10" height="3120" id="_10-2" width="4680"/><ellipse class="cls-3" cx="2365.3" cy="2627.32" rx="1217.72" ry="132.68"/><path class="cls-4" d="M1595,740.43a692.93,692.93,0,0,1,367.67,74.36c95.54-240.1,321.49-417.34,596.48-437.44,336.12-24.57,633.91,193.8,721.24,506.38,193.08,111.49,329.35,313.56,346.82,552.71,28,383.59-260.15,717.28-643.66,745.31a695.38,695.38,0,0,1-217.1-18.17,694.1,694.1,0,0,1-264.24,73.31c-202.51,14.8-391.09-58.6-528.13-187.64a693.74,693.74,0,0,1-277.58,80.28c-383.51,28-717.14-260.2-745.17-643.79S1211.52,768.47,1595,740.43Z"/><ellipse class="cls-5" cx="2985.68" cy="2608.12" rx="506.53" ry="48.82"/><ellipse class="cls-5" cx="2145.11" cy="2603.03" rx="459.73" ry="48.82"/><ellipse class="cls-5" cx="2676.77" cy="2690.55" rx="225.38" ry="28.15"/><rect class="cls-6" height="1150.82" width="1006.93" x="1766.87" y="360"/><rect class="cls-7" height="1083.26" width="869.66" x="1835.5" y="427.56"/><rect class="cls-8" height="996.75" width="810.92" x="1864.87" y="460.37"/><g class="cls-9"><polygon class="cls-10" points="2335.11 748.42 2290.57 613.49 2290.57 460.37 2581.64 460.37 2645.14 638.29 2335.11 748.42"/></g><g class="cls-9"><path class="cls-10" d="M2134.67,1457.12q-134.89-421.81-269.8-843.63V460.37h291.07q47.07,121.35,94.15,242.7v754Z"/></g><rect class="cls-7" height="1083.26" width="40.48" x="2250.09" y="427.56"/><rect class="cls-10" height="107.97" width="1073.52" x="1733.57" y="1495.63"/><path class="cls-11" d="M1987.09,520l-7.29,35.51,37.06,21.75-41.73-11.1-21,38.23,9.39-42.2q-18.65-9.93-37.3-19.85l40.55,7.66Z"/><path class="cls-11" d="M2151.33,674.57q.3,10.54.61,21.07l23.89,7.44-25.11-.79q-3.39,12.21-6.79,24.42-.15-12.57-.31-25.14l-23.78-6.33,24-1Z"/><path class="cls-11" d="M2542.38,588.59l-8.67,14.31q6.38,7.54,12.73,15.11l-16.4-11.2-15,13.39,10.62-16.89L2512.5,589l16.42,9.53Z"/><path class="cls-11" d="M1994.72,731.6l-6.54,10.8,9.61,11.41-12.38-8.46-11.36,10.11,8-12.75-9.91-10.81,12.4,7.19Z"/><g class="cls-12"><path class="cls-11" d="M2654.33,683.15c-9.76-11.18-25.92-15.75-41.14-15.26s-29.86,5.38-44.21,10.26c-41.91,14.24-83.73,28.91-124.13,46.77-20.23,8.94-40.08,18.67-59.27,29.52-17.11,9.67-29.62,16.13-43.52,27.26-19.23,15.39-29.25,23.67-30.84,37.44-1.74,15.08,7.25,31.4,21.48,39.85,19,11.29,38.74,3.4,40.84,2.51,1.84,22.67,26.9,40.94,50.22,36.63s39.48-30.19,32.38-51.88c1,10.92,18.29,9.45,28.46,4.4,10.87-5.39,22-11.29,29.28-20.7s9.71-23.3,2.41-32.71c18.78,7.62,40.64,11.47,59.38,3.78s31.57-30.08,22.66-47.63c8.09,15.6,32.57,18.1,47.23,7.78s20.36-29.13,19.68-46.53C2664.8,703.38,2661.87,691.8,2654.33,683.15Zm-300,156.33a6.09,6.09,0,1,1,6.12-6.09A6.11,6.11,0,0,1,2354.35,839.48ZM2397,860.89a6.88,6.88,0,1,1,6.93-6.88A6.9,6.9,0,0,1,2397,860.89Zm17.24,23.44a10.25,10.25,0,1,1,10.32-10.25A10.28,10.28,0,0,1,2414.23,884.33Z"/></g><path class="cls-13" d="M3400.1,2501.59c-3.29-23.31-5.89-53.72-5.89-53.72h-70.68l17.88,61.71C3362.09,2511.2,3380.51,2505.73,3400.1,2501.59Z"/><path class="cls-14" d="M3400.1,2501.59c-19.59,4.14-38,9.61-58.69,8l3.1,10.71-27.59,10.9c27.33,33.11,66.32,40.91,106.35,28.64-5.2-15.21-15.27-28.79-17.78-33C3403.68,2523.88,3401.8,2513.67,3400.1,2501.59Z"/><path class="cls-13" d="M2995.08,2020.66l-59.43,48.55,50.69,32.59c24.79-9.5,46.9-17.61,66.29-31.31C3027.93,2048.23,2995.08,2020.66,2995.08,2020.66Z"/><path class="cls-14" d="M3100.31,2132.4c-6.55-16-18-29.84-21.22-35.63-2-3.69-13.08-14.22-26.46-26.28-19.39,13.7-41.5,21.81-66.29,31.31l14,9-28.3,14.35C3013.2,2141.52,3060.57,2147.62,3100.31,2132.4Z"/><path class="cls-14" d="M3533.44,1378.85c-4.63-11.95-46.91-89.15-46.91-89.15l-103.31,51.86,48.28,75,47.53,185.9c23.89-4.43,59.06-9.77,83-12C3555.69,1504.16,3536.25,1386.13,3533.44,1378.85Z"/><path class="cls-15" d="M3569.31,1565.23A133.37,133.37,0,0,0,3458.64,1579l43.69,111.93,9.28,84.62c4.08,2.54,21.09,12.51,43.26,8.43a60.72,60.72,0,0,0,31.29-16.34l-27.75-83.2S3573.38,1620.61,3569.31,1565.23Z"/><path class="cls-16" d="M3510.54,1765.73l1.07,9.79c4.08,2.54,21.09,12.51,43.26,8.43a60.72,60.72,0,0,0,31.29-16.34q-1.69-5.11-3.41-10.22C3556.08,1755.62,3530.68,1743.89,3510.54,1765.73Z"/><path class="cls-14" d="M2854.9,1079.56s-26.14,6.76-28.72,6.76c-1.31,0-33.48-57.13-75.21-108.87-13.46,23-51.82,47.62-70.17,65.78,41.85,68.93,102.48,144.8,113.46,149.35,20.7,8.56,88-6.86,88-6.86Z"/><path class="cls-15" d="M2652.81,877.71c-12.94-6.48-73.32-37.33-83.67-34.76s-39.67,18-39.67,23.14,16.39,66,26.74,69.41,55.2,0,68.14-8.57c0,0,27.82,92,64.86,153,18.35-18.16,69.45-68.2,82.91-91.23C2731,937.73,2659.23,880.92,2652.81,877.71Z"/><path class="cls-17" d="M2569.51,764.25,2474,798.18l13.53,37.61a.59.59,0,0,0,.76.36l94.41-33.54a.58.58,0,0,0,.36-.75Z"/><polygon class="cls-17" points="2623.41 1020.49 2595.8 1030.29 2488.63 732.47 2516.24 722.67 2623.41 1020.49"/><polygon class="cls-18" points="2656.39 733.39 2387.09 829.05 2368.55 777.53 2637.86 681.88 2656.39 733.39"/><polygon class="cls-19" points="2645.14 638.29 2335.11 748.42 2348.19 784.77 2658.22 674.64 2645.14 638.29"/><path class="cls-20" d="M3420.07,1925.55c-2.64-77,55.76-143.66,130.17-148.57,37.56-2.41,75.58,11.79,104.2,39.16a146,146,0,0,1,45.09,109.37l-13.56-.38a132.45,132.45,0,0,0-40.93-99.29c-25.87-24.74-60.12-37.65-93.9-35.42-67.19,4.43-119.91,64.84-117.53,134.67Z"/><path class="cls-21" d="M3649.3,2234.67H3469c-23.82,0-44.06-14.63-45.23-33l-17-266.22h304.76l-17,266.22C3693.36,2220,3673.12,2234.67,3649.3,2234.67Z"/><path class="cls-10" d="M3509,1929.51c-4.54-9.69-6.82-21.19-2.62-31a26.32,26.32,0,0,1,44.11-6.78c-7.2-16.31,1-38.19,17.89-44.17s38.17,7.76,37.9,25.56c-.53-12.86,15-23.08,27.08-18.49s17.18,21.2,10.57,32.28c13.47-12.13,34.79-14.69,50.78-6.12s25.53,27.69,22.72,45.53c-.51,3.26-1.45,6.57-3.61,9.07s-5.46,4-8.61,5.27c-27.95,11.32-57.74,17.45-87.68,20.61-15.17,1.6-30.4,2.45-45.65,2.86-7.7.21-15.4.3-23.1.32-5.55,0-13.08,1-17.78-2.63-3.78-3-5.15-8.49-8.13-12.17C3517.64,1943.15,3512.59,1937.14,3509,1929.51Z"/><path class="cls-20" d="M3709.08,1974l2.46-38.55H3406.78l3.1,48.54C3506.49,1986.88,3610.54,2009.25,3709.08,1974Z"/><rect class="cls-22" height="59.12" rx="1.31" width="342.7" x="3387.81" y="1915.05"/><path class="cls-15" d="M2553,858.07c-3.06-.94-7.69-.63-11.8.16-7.07,1.37-14.81,3-20.93,7-10.43,6.77-12.75,21.75,3.16,18.73,9.13-1.73,24.2-7.95,30-15.61C2558.14,862.18,2556.74,859.21,2553,858.07Z"/><path class="cls-15" d="M2555.64,875.75c-3.07-.94-7.7-.63-11.81.17-7.07,1.36-14.81,3-20.93,7-10.43,6.78-12.75,21.76,3.16,18.74,9.13-1.73,24.2-8,30-15.62C2560.74,879.86,2559.34,876.89,2555.64,875.75Z"/><path class="cls-15" d="M2562.93,894.58c-3.06-.94-7.7-.63-11.8.16-7.08,1.37-14.81,3-20.94,7-10.42,6.77-12.75,21.75,3.16,18.74,9.13-1.74,24.2-8,30-15.62C2568,898.69,2566.64,895.72,2562.93,894.58Z"/><path class="cls-15" d="M2570.22,913.41c-3.06-.94-7.7-.63-11.8.16-7.07,1.37-14.81,3-20.93,7-10.43,6.77-12.75,21.75,3.16,18.73,9.12-1.73,24.19-7.94,30-15.61C2575.33,917.52,2573.93,914.55,2570.22,913.41Z"/><path class="cls-15" d="M2610.23,857s-32.76,16.25-44.82,14.81S2550,869,2550,869s12.05,13.89,14,20.12-10.13,15.32-14,12.93-27.48-29.22-28-35.45,41.94-35,47.24-32.09S2610.23,857,2610.23,857Z"/><path class="cls-23" d="M3582.15,1867.86a6.42,6.42,0,1,1-6.42-6.38A6.4,6.4,0,0,1,3582.15,1867.86Z"/><g class="cls-24"><path class="cls-23" d="M3568.24,1884a4.54,4.54,0,1,1-4.54-4.5A4.52,4.52,0,0,1,3568.24,1884Z"/></g><g class="cls-24"><path class="cls-23" d="M3525.85,1891.87a4.54,4.54,0,1,1-4.54-4.51A4.53,4.53,0,0,1,3525.85,1891.87Z"/></g><path class="cls-23" d="M3544.52,1899.19a7.37,7.37,0,1,1-7.37-7.32A7.35,7.35,0,0,1,3544.52,1899.19Z"/><path class="cls-23" d="M3635.29,1869.88a6.29,6.29,0,1,1-6.29-6.25A6.27,6.27,0,0,1,3635.29,1869.88Z"/><g class="cls-24"><path class="cls-23" d="M3616.9,1897.9a4.77,4.77,0,1,1-4.77-4.74A4.75,4.75,0,0,1,3616.9,1897.9Z"/></g><path class="cls-15" d="M3515.55,1766.78c-2,2.51-3.36,6.91-4.09,11-1.26,7-2.51,14.8-1,21.91,2.62,12.1,15.86,19.63,18.74,3.8,1.65-9.09,1.22-25.29-3.89-33.45C3521.24,1763.53,3518,1763.76,3515.55,1766.78Z"/><path class="cls-15" d="M3532.82,1770.72c-2.39,2.51-4.06,6.91-4.94,11-1.51,7-3,14.8-1.18,21.91,3.17,12.1,19.17,19.63,22.64,3.8,2-9.09,1.48-25.29-4.69-33.45C3539.7,1767.47,3535.72,1767.7,3532.82,1770.72Z"/><path class="cls-15" d="M3553.79,1770.72c-2.11,2.51-3.59,6.91-4.36,11-1.34,7-2.69,14.8-1,21.91,2.79,12.1,16.93,19.63,20,3.8,1.77-9.09,1.31-25.29-4.15-33.45C3559.87,1767.47,3556.36,1767.7,3553.79,1770.72Z"/><path class="cls-15" d="M3573.71,1770.72c-2,2.51-3.36,6.91-4.09,11-1.26,7-2.51,14.8-1,21.91,2.62,12.1,15.86,19.63,18.74,3.8,1.65-9.09,1.22-25.29-3.89-33.45C3579.4,1767.47,3576.11,1767.7,3573.71,1770.72Z"/><path class="cls-15" d="M3567.6,1713.35c6.65,4.23,21.93,15.27,29.26,35.38,3.4,9.36,12,29.07,0,37.62-5.4,3.83-38.55,1.05-41.26,1.64-4.9,1.07-9.29-10.52-7.13-16.13,2.68-6.95,16.73-10.2,35.39-5.91Z"/><path class="cls-16" d="M3011.54,2063.2c-54.66-54.85-232.5-235.11-226.28-251.82,6.11-16.43,253.83-75.82,329.62-93.62l1.47,6.19c-121.19,28.49-316.63,78.07-325.19,89.87.46,14.2,138.19,157.84,224.94,244.9Z"/><path class="cls-16" d="M3112.91,1722.56c-2.61-4.07-64-100.32-78.3-142.08l6.08-2c14,41,77,139.72,77.63,140.72Z"/><path class="cls-16" d="M3383.74,2480.29c-2.83-14.21-69.47-348.11-69-369.53.4-19.94,16.41-324.81,18.36-361.69-1.51.08-3,.12-4.48.12-67.79,0-102.18-84.4-102.53-85.28l6-2.35c.34.88,35.67,87.55,104.11,80.88a3.21,3.21,0,0,1,3.52,3.34c-.18,3.44-18.12,344.09-18.53,365.11-.34,16.59,44.93,248.07,68.92,368.15Z"/><path class="cls-16" d="M3214.81,1365.44l-149.57-26.22,16.89-119.41,150.54,28.42ZM3072.45,1334l137,24,16-104.68-137.86-26Z"/><path class="cls-25" d="M3079.09,2096.77s49,38.48,36.52,76.87l-229.38,37.51s-27.22-25.3-17.56-42.75,131.7-57.57,131.7-57.57S3056,2156,3079.09,2096.77Z"/><polygon class="cls-26" points="3115.61 2173.64 3117.65 2182.68 2890.31 2223.07 2886.23 2211.15 3115.61 2173.64"/><path class="cls-26" d="M2988.53,2139.16a37,37,0,0,0-22.42-20,4.88,4.88,0,1,0-2.61,9.41c.55.18,1.1.37,1.65.58l.15.06.43.19c1,.45,1.92.94,2.85,1.49s1.88,1.19,2.79,1.84l.4.32c.45.37.89.76,1.32,1.15.79.73,1.55,1.49,2.26,2.29.35.39.69.8,1,1.21l.39.53a31.82,31.82,0,0,1,3.28,5.83,4.92,4.92,0,0,0,2.94,2.24,5,5,0,0,0,3.78-.49,4.93,4.93,0,0,0,2.26-2.92A5.72,5.72,0,0,0,2988.53,2139.16Z"/><path class="cls-26" d="M2961.72,2147.2a21.89,21.89,0,0,0-7.71-12.13c-4.05-3.32-8.66-5.47-13.46-7.5a5.39,5.39,0,0,0-3.78-.49,5,5,0,0,0-2.94,2.24c-1.11,2.09-.76,5.6,1.77,6.67,2.08.89,4.16,1.77,6.18,2.78,1,.51,2,1.05,2.95,1.63.49.29,1,.6,1.42.91l.74.52a27.68,27.68,0,0,1,2.12,1.94c.34.35.67.71,1,1.09h0l.29.4a19.76,19.76,0,0,1,1.37,2.4c.06.2.14.39.2.58a16,16,0,0,1,.39,1.55,4.91,4.91,0,0,0,9.47-2.6Z"/><path class="cls-25" d="M3407.44,2529.89s42.48,47.09,23.65,82.83l-232.46-1.39s-22.55-29.48-10.07-45.07,138.63-39.13,138.63-39.13S3374.6,2584.39,3407.44,2529.89Z"/><polygon class="cls-26" points="3431.09 2612.72 3431.57 2621.98 3200.63 2623.77 3198.63 2611.34 3431.09 2612.72"/><path class="cls-26" d="M3309.56,2553.47a37,37,0,0,0-18.72-23.44,4.89,4.89,0,1,0-4.17,8.84c.52.27,1,.56,1.53.85l.14.09.39.26a30.19,30.19,0,0,1,2.56,1.94c.85.72,1.65,1.49,2.43,2.28l.35.39q.57.66,1.11,1.35c.65.85,1.26,1.73,1.83,2.63.28.45.55.9.81,1.37l.3.59a31.86,31.86,0,0,1,2.25,6.29,4.88,4.88,0,0,0,2.51,2.7,5,5,0,0,0,3.81.15,4.94,4.94,0,0,0,2.72-2.5A5.66,5.66,0,0,0,3309.56,2553.47Z"/><path class="cls-26" d="M3283.88,2560.93a21.87,21.87,0,0,0-5.55-13.25c-3.42-3.95-7.61-6.84-12-9.65a5.45,5.45,0,0,0-3.65-1.12,5.06,5.06,0,0,0-3.27,1.72c-1.45,1.88-1.7,5.4.6,6.88,1.91,1.22,3.81,2.44,5.63,3.77.9.67,1.79,1.37,2.64,2.1.42.37.84.75,1.24,1.14l.64.63c.61.74,1.22,1.47,1.76,2.27.28.4.54.82.79,1.24h0l.22.45a20.17,20.17,0,0,1,.94,2.6c0,.2.07.4.1.6a14.18,14.18,0,0,1,.12,1.59,4.93,4.93,0,0,0,5.38,4.37A5,5,0,0,0,3283.88,2560.93Z"/><path class="cls-27" d="M3123.51,2606.85h51.7l-49.72-345.64H2697.86l-49.72,345.64h51.7L2720,2434h383.31Zm-396.72-230.78,9.76-83.58H3086.8l9.76,83.58Z"/><rect class="cls-28" height="67.35" rx="0.99" width="490.71" x="2666.82" y="2201"/><rect class="cls-29" height="801.41" width="701.92" x="1767.76" y="1813.18"/><rect class="cls-30" height="195.37" rx="2.3" width="620.76" x="1808.34" y="1845.14"/><rect class="cls-30" height="195.37" rx="2.3" width="620.76" x="1808.34" y="2070.89"/><rect class="cls-30" height="195.37" rx="2.3" width="620.76" x="1808.34" y="2296.63"/><g class="cls-31"><rect class="cls-32" height="11.57" rx="0.45" width="291.67" x="1972.89" y="1885.47"/><rect class="cls-32" height="14.33" rx="0.32" width="9.47" x="2238.18" y="1884.09"/><rect class="cls-32" height="14.33" rx="0.32" width="9.47" x="1989.32" y="1884.09"/></g><rect class="cls-23" height="11.56" rx="0.45" width="303.12" x="1967.16" y="1878.22"/><rect class="cls-33" height="14.33" rx="0.33" width="9.84" x="2242.86" y="1876.84"/><rect class="cls-33" height="14.33" rx="0.33" width="9.84" x="1984.24" y="1876.84"/><g class="cls-31"><rect class="cls-32" height="11.56" rx="0.45" width="291.67" x="1972.89" y="2108.34"/><rect class="cls-32" height="14.33" rx="0.32" width="9.47" x="2238.18" y="2106.96"/><rect class="cls-32" height="14.33" rx="0.32" width="9.47" x="1989.32" y="2106.96"/></g><rect class="cls-23" height="11.56" rx="0.45" width="303.12" x="1967.16" y="2101.09"/><rect class="cls-33" height="14.33" rx="0.33" width="9.84" x="2242.86" y="2099.71"/><rect class="cls-33" height="14.33" rx="0.33" width="9.84" x="1984.24" y="2099.71"/><g class="cls-31"><rect class="cls-32" height="11.56" rx="0.45" width="291.67" x="1972.89" y="2336.13"/><rect class="cls-32" height="14.33" rx="0.32" width="9.47" x="2238.18" y="2334.75"/><rect class="cls-32" height="14.33" rx="0.32" width="9.47" x="1989.32" y="2334.75"/></g><rect class="cls-23" height="11.56" rx="0.45" width="303.12" x="1967.16" y="2328.88"/><rect class="cls-33" height="14.33" rx="0.33" width="9.84" x="2242.86" y="2327.5"/><rect class="cls-33" height="14.33" rx="0.33" width="9.84" x="1984.24" y="2327.5"/><path class="cls-30" d="M1769.51,1787.8l738.59.73a12.47,12.47,0,0,1,12.62,12.49h0a12.49,12.49,0,0,1-12.63,12.16H1769.48a12.47,12.47,0,0,1-12.63-12.71l0-.73A12.51,12.51,0,0,1,1769.51,1787.8Z"/><ellipse class="cls-5" cx="1456.8" cy="2580.79" rx="186.1" ry="31.24"/><path class="cls-34" d="M1543.11,2246.12s107.32-77.22,139.64-152.34,54.31-175.43,47.85-183-210.24,176.57-258.36,336.3Z"/><path class="cls-35" d="M1716.86,1936c-34.37,51-66.69,103-100.58,153.75q-25.07,38.31-51.74,75.22c-18,24.46-36.12,48.75-57.16,70.69,24.84-17,45.91-39.7,65.66-63,10.11-11.52,19.09-24,28.49-36.15,8.92-12.51,17.84-25.05,26.33-37.89,16.91-25.75,33-52.06,47.86-79.2S1704.72,1964.73,1716.86,1936Z"/><path class="cls-34" d="M1451.3,2245.7s56.89-182.29,63.36-290.92-16.81-246.36-31.68-250.53-188.14,331.68-56.25,541.45Z"/><path class="cls-35" d="M1477.14,1729.36c-10.29,40.9-18.63,82.32-25.5,124-3.65,20.81-6.43,41.78-9.46,62.71-2.62,21-5.16,42-7.23,63.09s-3.5,42.25-5,63.39c-.82,21.22-2.06,42.39-1.79,63.66,0,42.4,2.09,85.19,10.64,126.65-.37-10.62-.85-21.17-1.51-31.66-.23-10.54,0-21.1-.06-31.6-.26-10.5.51-21,.72-31.55l.43-15.75.89-15.75c2.12-42,5.6-83.93,9.79-125.8,3.86-41.9,8.69-83.73,13.48-125.61Z"/><path class="cls-36" d="M1451.3,2245.7s32.32-131.06-28.45-234-140.5-212.77-149.12-210.72,26.28,329.55,153,444.72Z"/><path class="cls-37" d="M1281.17,1821.16c12.25,35.07,25.21,69.71,38.32,104.26L1359,2028.89l39.83,103.3c13.24,34.46,26.25,69,40,103.47-8.09-36.45-18.26-72.32-29.59-107.71s-23.83-70.33-37.07-104.92c-13.47-34.49-27.46-68.75-42.58-102.44S1298.75,1853.52,1281.17,1821.16Z"/><path class="cls-35" d="M1440.31,2239.85s-45.25-134-126.71-183.16-164.22-89.26-175.86-81.73,42.67,170.87,278,270.74Z"/><path class="cls-36" d="M1157.08,1992.91c22,20.32,44,40.25,66,60.17s44.08,39.71,65.88,59.86l65.7,60.08c22,20,43.67,40.33,66.28,59.86a854,854,0,0,0-58.77-68.67c-20.47-22-42.06-42.72-64-63-22.11-20-44.8-39.36-68.26-57.56S1182.43,2008,1157.08,1992.91Z"/><path class="cls-36" d="M1397.76,2242.19s-47.48-78.85-126.36-91.37-121.55-26.44-124.13-19.48,84,100.74,160.34,114.36S1397.76,2242.19,1397.76,2242.19Z"/><path class="cls-37" d="M1378.62,2240.1c-16.06-9.87-32.51-18.49-49.1-26.71s-33.36-15.91-50.14-23.53c-16.9-7.33-33.78-14.66-50.85-21.51s-34.18-13.55-51.66-20c14.74,12.09,30.85,21.84,47.15,30.9s33,17.13,49.93,24.75c17,7.37,34.08,14.41,51.52,20.46S1360.49,2236.17,1378.62,2240.1Z"/><path class="cls-35" d="M1479.75,2238.46s86.63-80,115.08-205.53,40.08-242.38,31-241.71-181.3,212.64-179.22,448.88Z"/><path class="cls-36" d="M1616,1821.16c-13.13,33.76-25.48,67.7-37.65,101.71l-36.39,102q-18.06,51-36.75,101.68c-12.62,33.74-25.35,67.39-39.2,100.81,19.06-30.37,34.79-63,49.39-96s27.52-66.92,39.85-101c12.07-34.17,23.37-68.63,33.54-103.49S1608.48,1856.86,1616,1821.16Z"/><path class="cls-36" d="M1500.24,2242.19s47.48-78.85,126.36-91.37,121.54-26.44,124.13-19.48-84,100.74-160.34,114.36S1500.24,2242.19,1500.24,2242.19Z"/><path class="cls-37" d="M1519.38,2240.1c16-9.87,32.51-18.49,49.1-26.71s33.36-15.91,50.14-23.53c16.9-7.33,33.77-14.66,50.85-21.51s34.18-13.55,51.66-20c-14.74,12.09-30.85,21.84-47.15,30.9s-33,17.13-49.93,24.75c-17,7.37-34.08,14.41-51.52,20.46S1537.51,2236.17,1519.38,2240.1Z"/><path class="cls-38" d="M1635.94,2236.33v226.46c0,69.05-52.51,125.55-116.69,125.55H1390.58c-64.18,0-116.69-56.5-116.69-125.55V2236.33Z"/><g class="cls-39"><path class="cls-23" d="M1252.71,2330.64l35,42,35-42a9.31,9.31,0,0,1,13.76,0l35,42,34.92-42a9.31,9.31,0,0,1,13.75,0l35,42,34.93-42a9.3,9.3,0,0,1,13.75,0l34.93,42,34.93-42a9.3,9.3,0,0,1,13.75,0l34.92,42,34.89-42c8.36-10.06,22.08,4.78,13.75,14.79l-41.77,50.22a9.3,9.3,0,0,1-13.75,0l-34.91-42q-17.48,21-34.93,42a9.31,9.31,0,0,1-13.76,0l-34.93-42q-17.46,21-34.93,42a9.3,9.3,0,0,1-13.75,0q-17.48-21-34.94-42l-34.92,42a9.31,9.31,0,0,1-13.75,0l-35-42-35,42a9.3,9.3,0,0,1-13.75,0L1239,2345.43C1230.63,2335.43,1244.34,2320.59,1252.71,2330.64Z"/></g><path class="cls-40" d="M1356.64,2236.33v226.46c0,69.05,52.51,125.55,116.69,125.55h-82.75c-64.18,0-116.69-56.5-116.69-125.55V2236.33Z"/><polygon class="cls-30" points="2509.41 1812.53 2512.99 2613.27 2469.68 2614.6 2469.42 1812.43 2509.41 1812.53"/><path class="cls-18" d="M2029.19,1717.31c6-4.61,9.22-11.78,9.93-18.94s-.87-14.36-3.08-21.25c-2.31-7.19-4.81-18.55-13-18.59q-122.7-.6-245.37,3.08c0,20.37,2.3,40.66,5.06,60.87C1865.26,1721.2,1947.16,1725.62,2029.19,1717.31Z"/><path class="cls-35" d="M1969.79,1720.86c3.85,2.38,11.87-12.15,11.81-30.73.39-18.56-7.1-32.83-11.07-30.77-1.76.81-.19,4,1.91,9.25a51.91,51.91,0,0,1-.5,43C1969.74,1716.81,1968.1,1719.94,1969.79,1720.86Z"/><path class="cls-35" d="M2009,1717.85c4,2.28,11.4-12.08,12.06-30.4.43-9.1-.71-17.36-2.69-23-.82-2.73-2.26-5.5-4.35-6.7s-3.87-.52-3.94.5c-.06,1.84,1.3,1.68,2.93,7.53a60.31,60.31,0,0,1,3.3,21.63,62,62,0,0,1-5.27,21.26C2008.8,1713.81,2007.25,1717,2009,1717.85Z"/><path class="cls-41" d="M1743.86,1779.12c-2,5.39-3.13,12.68,1,16.92,97.36.6,194.27-.1,291.55-3.75a36.62,36.62,0,0,0,7.91-8c5.4-7.52,7.44-16.64,8.45-25.6,1.57-13.9.15-28.47-9-39.66q-143.88.06-287.7,3.94c-1.43,1.54-.95,4.49-.38,6.44a46.88,46.88,0,0,1-3.58,34.49C1749.45,1769,1745.82,1773.74,1743.86,1779.12Z"/><path class="cls-42" d="M1981.73,1783.68c-2.83,5.46-6.08,7.66-4.87,9.17,1.18,1.74,6.35-.37,9.92-7s4.49-16.24,4.91-26.33c.59-10.17.14-19.67-2.21-26.29a21.24,21.24,0,0,0-3.92-7.36l-.5-.54a2.73,2.73,0,0,0-1.15-.87,2.7,2.7,0,0,0-1.8,0c-.38,0-1.3.77-.87,1.25.3.26.59.07.82,0s.36-.28.58-.24.34.33.11.84a2.52,2.52,0,0,1-.61.61c-.18.15-.08.28-.18.37s-.7-.48-.35.26c.84,2.37,1.55,4.37,2.51,7.06,2,6,3.41,14.91,2.82,24.9C1986.54,1769.46,1984.73,1778.3,1981.73,1783.68Z"/><path class="cls-42" d="M2026.77,1781.92c-3.5,5.93-6,9.46-4.39,10.53,3.57,2.73,15.07-13,18.72-34.76,1.93-10.81,1.86-20.6.16-27.83a15.19,15.19,0,0,0-4.54-8c-1.85-1.53-3.46-1.66-4.21-.88-1.25,1.4,1.82,3.55,3.3,9.91a67.85,67.85,0,0,1,.59,26.24C2034.6,1767.38,2030.19,1776,2026.77,1781.92Z"/><path class="cls-43" d="M1871.37,1711.06c20.37,1.25,40.82,3,61.18,1.53,8.35-.6,17.63-2.24,22.42-8.54,4.1-5.37,3.63-12.64,1.66-19-1.52-4.87-4-9.76-8.54-12.71-5.63-3.67-13.12-3.58-20-3.34l-103.37,3.62-25.84.9c-5.45.19-14.15-.85-20.86-.23.48,11.84,1.56,23.66,3,35.45Q1826.21,1708.37,1871.37,1711.06Z"/><path class="cls-43" d="M1743.86,1779.12a31.86,31.86,0,0,0-1.44,5.48c54.51,1.35,109,2.52,163.57,2,13.88-.12,28.46-.51,40.44-6.92s20-21,13.56-32.21c-7-12.29-25.28-13.68-40.42-13.47l-124.89,1.78c-8.33.12-25-2-37.82-1a47.05,47.05,0,0,1-4.74,29.08C1749.45,1769,1745.82,1773.74,1743.86,1779.12Z"/><path class="cls-44" d="M1105.77,1371.09V1188.83h40.9v-99h206.59v281.22h40.63V1139.72h57.47v-75.43h55.88V1110h80.47v261.08h31.11a31.08,31.08,0,0,1,31.18,31h0a31.17,31.17,0,0,1-31.27,31.06H1043.49v-62Z"/><path class="cls-6" d="M1037.57,1433.13h544.06a31.12,31.12,0,0,0,31.22-31h0a31.12,31.12,0,0,0-31.22-31H1037.57a31.12,31.12,0,0,0-31.22,31h0A31.12,31.12,0,0,0,1037.57,1433.13Z"/><rect class="cls-15" height="261.08" width="80.47" x="1470.1" y="1110.01"/><rect class="cls-38" height="19.72" width="80.47" x="1470.1" y="1139.72"/><rect class="cls-38" height="19.72" width="80.47" x="1470.1" y="1178.12"/><rect class="cls-38" height="19.72" width="80.47" x="1470.1" y="1283.26"/><rect class="cls-38" height="19.72" width="80.47" x="1470.1" y="1321.66"/><rect class="cls-19" height="306.8" width="55.89" x="1414.22" y="1064.29"/><rect class="cls-45" height="27.6" width="26.7" x="1428.81" y="1089.87"/><rect class="cls-21" height="231.37" width="57.47" x="1356.74" y="1139.72"/><rect class="cls-46" height="17.48" width="57.47" x="1356.74" y="1166.05"/><rect class="cls-46" height="17.48" width="57.47" x="1356.74" y="1327.28"/><rect class="cls-7" height="281.22" width="206.6" x="1109.52" y="1089.87"/><rect class="cls-23" height="245.22" width="166.05" x="1129.8" y="1107.87"/><rect class="cls-15" height="161.8" width="109.56" x="1158.04" y="1149.58"/><rect class="cls-18" height="182.25" width="133.89" x="1068.63" y="1188.83"/><rect class="cls-23" height="158.92" width="107.61" x="1081.77" y="1200.5"/><rect class="cls-3" height="104.86" width="71.01" x="1100.07" y="1227.53"/><path class="cls-47" d="M2736.37,2398.55a1,1,0,0,0-.17,0v-.09Z"/><path class="cls-47" d="M2736.37,2398.55a1,1,0,0,0-.17,0v-.09Z"/><path class="cls-47" d="M2736.37,2398.55a1,1,0,0,0-.17,0v-.09Z"/><path class="cls-41" d="M2872.72,2676.38a15.14,15.14,0,0,1-15.2,15.1H2706a18.49,18.49,0,0,1-18.56-18.42V2648c20.59-36.43,11.26-94.79,4.63-123.95a38.46,38.46,0,0,1,7.83-33l44.67-54.27a3.54,3.54,0,0,1,.49-2.95,25.79,25.79,0,0,0,4.14-14.35c0-7.57-2.94-14.22-7.41-18a3.78,3.78,0,0,1,0-5.82c4.47-3.82,7.41-10.47,7.41-18,0-7.15-2.62-13.48-6.63-17.33a3.73,3.73,0,0,1-.32-5.05l4.22-5.23a3.88,3.88,0,0,1,3-1.41h55.51a3.81,3.81,0,0,1,3.18,1.7c18.59,28.2,31.56,59.61,40.69,93.23a3.78,3.78,0,0,1-3.67,4.75s19,1.15,10.75,29.26c-21.64,103.41,9.29,157.65,9.29,157.65Z"/><path class="cls-42" d="M2872.72,2676.38a15.14,15.14,0,0,1-15.2,15.1H2739.21a18.48,18.48,0,0,1-18.54-18.42V2648c20.57-36.43,11.24-94.79,4.61-123.95a38.46,38.46,0,0,1,7.83-33l44.67-54.27a3.57,3.57,0,0,1,.48-2.95,25.72,25.72,0,0,0,4.15-14.35c0-7.57-2.94-14.22-7.41-18a3.78,3.78,0,0,1,0-5.82c4.47-3.82,7.41-10.47,7.41-18,0-7.15-2.62-13.48-6.63-17.33a3.73,3.73,0,0,1-.32-5.05l4.22-5.23a3.86,3.86,0,0,1,3-1.41h22.26a3.81,3.81,0,0,1,3.18,1.7c18.59,28.2,31.56,59.61,40.69,93.23a3.78,3.78,0,0,1-3.67,4.75s19,1.15,10.75,29.26c-21.64,103.41,9.29,157.65,9.29,157.65Z"/><polygon class="cls-29" points="2802.24 2348.56 2750.77 2348.56 2755.29 2337.41 2797.72 2337.41 2802.24 2348.56"/><polygon class="cls-30" points="2797.6 2348.56 2755.41 2348.56 2759.12 2337.41 2793.89 2337.41 2797.6 2348.56"/><path class="cls-30" d="M2700.13,2317.9l1.23.95a4.54,4.54,0,0,0,4.44.56c31.28-13,40.39-26.91,41.78-61.55l-14.23,2.53c5.11,23.11-9.49,44.32-31.42,49.79A4.4,4.4,0,0,0,2700.13,2317.9Z"/><path class="cls-30" d="M2836,2269.66v4.1a6.37,6.37,0,0,1-6.39,6.35h-15.86a11,11,0,0,0-11.08,11v40.26a6.06,6.06,0,0,1-6.07,6h-41.35a6.06,6.06,0,0,1-6.07-6v-46a28.59,28.59,0,0,0-28.68-28.49,5.61,5.61,0,0,1-4-1.65,5.51,5.51,0,0,1-1.66-3.93v-20a5.6,5.6,0,0,1,5.62-5.58h72.57a13.91,13.91,0,0,1,7.89,2.5c16.05,11.19,28,24,34.53,38.93A6.38,6.38,0,0,1,2836,2269.66Z"/><rect class="cls-42" height="18.78" width="1.91" x="2713.01" y="2231.26"/><path class="cls-29" d="M2836,2269.66v4.1a6.37,6.37,0,0,1-6.39,6.35h-15.86a11,11,0,0,0-11.08,11v40.26a6.06,6.06,0,0,1-6.07,6h-29.53a6.07,6.07,0,0,1-6.1-6v-46a28.57,28.57,0,0,0-28.67-28.49,5.6,5.6,0,0,1-5.59-5.58v-20a5.59,5.59,0,0,1,5.59-5.58h60.77a13.91,13.91,0,0,1,7.89,2.5c16.05,11.19,28,24,34.53,38.93A6.38,6.38,0,0,1,2836,2269.66Z"/><polygon class="cls-30" points="2678.08 2245.71 2689.3 2247.92 2689.3 2230.81 2678.08 2233.02 2678.08 2245.71"/><rect class="cls-30" height="24.83" rx="0.48" width="23.71" x="2689.3" y="2226.95"/><path class="cls-29" d="M2849.49,2486.71q-63.42,23-115.38,72l-10.24,70.95h135.86C2849.07,2584.57,2846.09,2536.76,2849.49,2486.71Z"/><rect class="cls-30" height="23.08" width="135.85" x="2723.87" y="2629.68"/><path class="cls-48" d="M2578,2358H2526.9l2.95-59.6c0-1.6,1.09-2.93,3-4,0,0,0,0,0,0,10.06-5.92,42.26-4.56,42.26,4Z"/><path class="cls-18" d="M2569,2358H2526.9l2.95-59.6c0-1.6,1.09-2.93,3-4,0,0,0,0,0,0,13.41-2.23,33.39,0,33.39,6.84Z"/><path class="cls-48" d="M2635,2445.75c.36,0,.72.05,1.08.05a13.63,13.63,0,0,0,13.67-13.6,10.23,10.23,0,0,0-.15-1.84c-5.16-21.07-57-56.29-69.08-64.25a10,10,0,0,0-5.48-1.64h-43.31a9.85,9.85,0,0,0-7.81,3.8l-.21.26-12.4,15.72a8.5,8.5,0,0,1-.74.85,26.55,26.55,0,0,0-4.36,5.69l0,0a26.82,26.82,0,0,0-3.59,13.48,27.15,27.15,0,0,0,.54,5.45c3.12,15.23.7,31-5.38,45.32-14.73,34.58-23.56,78.61-23.56,126.58,0,43.07,7.11,83,19.25,115.73a9.93,9.93,0,0,0,9.32,6.45h131.48a9.94,9.94,0,0,0,9.32-6.45c12.14-32.73,19.25-72.66,19.25-115.73C2662.81,2529.25,2652.28,2481.55,2635,2445.75Zm-7.61,148.68c-2.16.69-4.56.13-7.11-1.6-12.16-8.24-27.7-43.16-37.7-93.68a32.71,32.71,0,0,1-1.1-5.72c-1.39-12.54,3.56-24.37,11.8-30.38a20.92,20.92,0,0,1,8.94-3.87c13.31-2.31,25.6,9.31,27.43,25.92l.18,2.32,6.88,91.63C2637.55,2586.5,2633.22,2592.51,2627.4,2594.43Z"/><path class="cls-18" d="M2620.74,2449.8a9.77,9.77,0,0,0,1.08.06,13.64,13.64,0,0,0,13.67-13.6,10.23,10.23,0,0,0-.15-1.84c-5.16-21.09-57-56.29-69.08-64.25a9.93,9.93,0,0,0-5.49-1.64h-37.05l-12.4,15.72a8.5,8.5,0,0,1-.74.85,26.55,26.55,0,0,0-4.36,5.69l0,0a26.82,26.82,0,0,0-3.59,13.48,27.15,27.15,0,0,0,.54,5.45c3.12,15.23.7,31-5.38,45.32-14.73,34.58-23.56,78.61-23.56,126.58,0,43.07,7.11,83,19.25,115.73a9.93,9.93,0,0,0,9.32,6.45H2628a9.65,9.65,0,0,0,1.29-2.39c12.13-32.74,19.24-72.67,19.24-115.74C2648.53,2533.31,2638,2485.6,2620.74,2449.8Zm6.66,144.63c-2.16.69-4.56.13-7.11-1.6a13.55,13.55,0,0,1-7.17,5.64c-12.51,4.07-32.7-34.19-44.8-95.29a34.73,34.73,0,0,1-1.12-5.69c-1.83-16.62,7.45-32,20.76-34.26a18.77,18.77,0,0,1,5.33-.18,20.92,20.92,0,0,1,8.94-3.87c13.31-2.31,25.6,9.31,27.43,25.92l.18,2.32,6.88,91.63C2637.55,2586.5,2633.22,2592.51,2627.4,2594.43Z"/><rect class="cls-49" height="6.26" width="42.85" x="2530.96" y="2357.96"/><path class="cls-29" d="M2601.89,2607.41c-34.57-52.59-42.91-130.35-42.91-130.35a28.3,28.3,0,0,0-28.4-28.21c-15.67,0-30,11.83-30,27.42a4.58,4.58,0,0,1-.64,2.08c-9.51,30.21-15,65.54-15,103.31a366.46,366.46,0,0,0,6.72,70.75,35,35,0,0,0,34.51,28h53.1a35.07,35.07,0,0,0,34.78-40.53A84.8,84.8,0,0,0,2601.89,2607.41Z"/><path class="cls-17" d="M2972.78,1472l-5.65,33.36s-374.6,202-364,302.46c0,0,173.53,55.47,297.27,57s138.82,18,185.6,40.48,78.46,155.91,150.89,160.41,149.38,9,149.38,9S3451.37,1661.37,3360,1485Z"/><path class="cls-14" d="M2606.11,1807.81s21.13,105.69,154.67,182.89,239.59,120.13,239.59,120.13l70-23.71L2872.44,1864S2643.46,1824.11,2606.11,1807.81Z"/><path class="cls-14" d="M3183.28,2035.68s126.75,453.5,153.91,488.73l70.25,5.48L3371.15,2072S3233.08,2092.65,3183.28,2035.68Z"/><path class="cls-17" d="M3011.26,1729.1c-9.05-4.5-405.15,78.71-405.15,78.71s344.8,288.59,780.12,266.85l-103.36-224.13S3020.32,1733.6,3011.26,1729.1Z"/><polygon class="cls-50" points="2670.51 1844.69 2672.99 1847.38 2976.29 1570.78 2973.8 1568.09 2670.51 1844.69"/><polygon class="cls-50" points="2839.94 1946.27 2843.07 1948.18 3051.31 1610.87 3048.17 1608.96 2839.94 1946.27"/><polygon class="cls-50" points="3045.71 2027.67 3049.24 2028.7 3157.89 1659.9 3154.36 1658.88 3045.71 2027.67"/><polygon class="cls-50" points="3235.02 2065.46 3238.68 2065.87 3280.17 1702.32 3276.52 1701.91 3235.02 2065.46"/><polygon class="cls-51" points="3320.22 1264.73 3368.88 1503.1 3354.17 1324.32 3320.22 1264.73"/><path class="cls-52" d="M2969.77,1500.48l-2.64,4.87-23,47.6s135.06,63,212,106.44,184.09,71.21,244.45,41.22l5.28-11.24s-22.63-146.92-37.72-194.89S2969.77,1500.48,2969.77,1500.48Z"/><path class="cls-42" d="M3489.3,1279.44c-26.29-54.68-70.51-172-80.81-182.24-13.42-13.47-106.25-73.38-106.25-73.38l-129.46-35.15s-71.44,6.33-89.33,8.48c-13.56,1.75-136.51,47.68-196.29,70.17-5,1.89-9.49,3.64-13.56,5.12l-18.7,7.14L2875.1,1213l19.38-2.82,13.42-2,85.94-12.92-31.24,343.81c23,1.62,68.52,18.47,107.43,32.34,75.5,27.07,98.87,54.11,158.52,80.1,17.82,7.76,49.24,15,75.82,19.11,26.41,4.06,61-7.77,77-9,.8-35.5-10.11-55.5-10.18-92.2-.19-85.28-12.92-161.55-17.54-240.57l22.5,23.16,9.49,9.7,4.75,5,112-60.07s-2.71-5.65-7.19-15.08C3493.37,1288.06,3491.47,1284,3489.3,1279.44Z"/><path class="cls-41" d="M2887.16,1067.32c-5,1.89-9.49,3.64-13.56,5.12a410,410,0,0,0,20.88,137.78l13.42-2A403.88,403.88,0,0,1,2887.16,1067.32Z"/><path class="cls-41" d="M3376.11,1352l9.49,9.7q53.28-37.57,109.53-70.17c-1.76-3.5-3.66-7.54-5.83-12.12Q3431,1313,3376.11,1352Z"/><path class="cls-53" d="M3415.28,859.65l-15.37-71.74s94.24-33,48.44-87.48-104.79,7.74-104.79,7.74c-159-97-213.24,55.71-213.24,55.71,2.39,18.83,26.86,18.17,26.86,18.17-19.15,76.7-93.92,75.94-114.7,89.17s.81,39.19,12.87,43.84,13.84,12.73,13.84,12.73c30.89,63.59,86.07,56.23,114.7,65.49s113.49,14.16,113.49,14.16c56.52,23.39,132.06,5.58,140.46-.26S3463.13,984,3465,976.44s34.73-16.11,39.16-45.28S3415.28,859.65,3415.28,859.65Z"/><path class="cls-53" d="M3343.2,753.23c-30.69-31.49-48.58-74.15-87.48-53.6-93.22-21.72-89.15,31.93-91.24,78.86l-10.87,60.22,170.62,90c20,13,66-41,72.84-57,19-44.54-1.56-78-30.45-116.9C3363.89,751.15,3346.44,756.5,3343.2,753.23Z"/><path class="cls-14" d="M3198.39,923.64,3179.94,1005s7.09,12.25,48.72,20.61c34.56,6.94,58.78-4.55,58.78-4.55l24.65-132.18-103.36-8.52Z"/><polygon class="cls-54" points="3181.06 999.46 3275.24 949.53 3198.39 923.66 3181.06 999.46"/><path class="cls-14" d="M3172.11,778.91,3160,819.3,3139,888.85l-1.81,6a20,20,0,0,0,3.52,18.15l30.55,38.63a20.41,20.41,0,0,0,18,7.55l81.14-8.49a20.25,20.25,0,0,0,17.26-14.21L3340,762.52l-88.31-26.27C3217.87,726.23,3182.26,745.29,3172.11,778.91Z"/><path class="cls-55" d="M3156.25,831.49l-14.68,52.29c13.48-.77,25.1-10.18,27.48-23.45C3171.11,848.87,3165.75,837.75,3156.25,831.49Z"/><path class="cls-56" d="M3209.57,801.34a2.68,2.68,0,0,0-3.65.91l-35.42,58.67a2.63,2.63,0,0,0,.75,3.51L3195,881.11a2.73,2.73,0,0,0,1,.44,2.66,2.66,0,0,0,2.7-1.07,2.62,2.62,0,0,0-.64-3.67l-21.74-15.28L3210.48,805A2.64,2.64,0,0,0,3209.57,801.34Z"/><ellipse class="cls-14" cx="3315.59" cy="895.76" rx="37.14" ry="36.9"/><path class="cls-57" d="M3171.39,779.93c.89,7.77,27.28,10.4,27.92,3.17C3200.37,771.1,3170,767.63,3171.39,779.93Z"/><path class="cls-57" d="M3253.18,795.29c-3.85,6.17,18.86,19.78,24.25,14.09C3286,800.37,3259.58,785.05,3253.18,795.29Z"/><path class="cls-55" d="M3260.87,858.29a27.88,27.88,0,1,0,21.94,32.84A28,28,0,0,0,3260.87,858.29Z"/><path class="cls-57" d="M3241.58,833.65c-3.9-1.16-8.68,3.29-10.68,9.94s-.46,13,3.43,14.14,8.68-3.3,10.68-10S3245.48,834.81,3241.58,833.65Z"/><path class="cls-57" d="M3175.84,814.57c-3.76-1.11-8.38,3.18-10.31,9.6s-.45,12.53,3.31,13.64,8.38-3.17,10.31-9.59S3179.6,815.69,3175.84,814.57Z"/><path class="cls-58" d="M3214.68,902.54a25.47,25.47,0,0,0-8.46-2,69.46,69.46,0,0,1-25.39-7.85,30.56,30.56,0,0,0-4.46-2.08,8.62,8.62,0,0,0-2.62-.3c-3.8.35-5.67,4.1-6,7.45-.59,5.82,1.63,11.94,5.69,16.93a28.65,28.65,0,0,0,9.64,7.49c8.59,4.12,19.32,3.88,27.16-.27a23.77,23.77,0,0,0,3.36-2.16c3.79-3,6.59-7.53,5.57-12.23C3218.66,905.22,3217,903.65,3214.68,902.54Z"/><path class="cls-23" d="M3180.83,892.69a30.56,30.56,0,0,0-4.46-2.08c-.89,1.85-1.49,3.87-.79,5.76s2.5,3.17,4.25,4.22a58.23,58.23,0,0,0,24.17,7.94c2.34.28,4.83.33,6.9-.86a9.25,9.25,0,0,0,3.78-5.13,25.47,25.47,0,0,0-8.46-2A69.46,69.46,0,0,1,3180.83,892.69Z"/><path class="cls-59" d="M3189.5,911.76c-5.53-.76-11.65-.13-16.07,2.93a28.65,28.65,0,0,0,9.64,7.49c8.59,4.12,19.32,3.88,27.16-.27C3204.94,916.24,3197.31,912.78,3189.5,911.76Z"/><polygon class="cls-54" points="3302.21 901.62 3304.06 904.91 3330.55 890.23 3328.7 886.93 3302.21 901.62"/><polygon class="cls-54" points="3314.74 896.87 3321.39 908.21 3324.66 906.31 3318.02 894.98 3314.74 896.87"/><path class="cls-53" d="M3315.19,710.62c-18-9-38.78-11.86-58.87-10.14-33.21,2.88-40.45,15.08-63.2,39.25s-31.86,47.84-42.75,80.25c38.4-84.78,75.14-82.37,75.14-82.37s-2.28,25.17,36.62,45.71c18.93,10,33.47,12.5,37.19,20.2,4.68,9.59-7.84,32.25-4.27,42.36,3.08,8.66,4.6,5.57,10.69,12.56-.42,1.47-2.38,16.43-6.38,29.23,24.72-19.65,69.86-27,72.86-58.24,2.22-23.22-.68-47.11-10.23-68.43S3336.08,721.12,3315.19,710.62Z"/><path class="cls-60" d="M3356,699.41s-8.86.82-12.46,8.76c0,0,49.6,32.9,56.35,79.74,0,0,24.48-8.72,36.08-18.56C3436,769.35,3363.49,732.72,3356,699.41Z"/><path class="cls-14" d="M3198.56,999.38l-15.28-.56-1.7-6.19s-44.7,20.8-9,43.29,101.37,4.51,114.91-14.89l-65.68-21.09Z"/><path class="cls-41" d="M3172,1058.22c-55.83-13.49-19.61-68.21-19.61-68.21l-15.09.75-8.3,21.74c-12.83,49.47,43,59.22,43,59.22,64.89,25.48,151.65-32.24,151.65-32.24l-12.82-9C3289.66,1050,3227.8,1071.72,3172,1058.22Z"/><polygon class="cls-54" points="3402.83 1360.3 3511.1 1334.44 3496.76 1308.96 3402.83 1360.3"/><polygon class="cls-54" points="2837.83 1193.62 2870.36 1188.28 2854.9 1079.58 2837.83 1193.62"/><path class="cls-54" d="M3190.83,2064.16l6.79,21s132.78,51.72,177.3,51.72l-3.77-61.46S3251.18,2077.66,3190.83,2064.16Z"/><path class="cls-54" d="M2640.06,1880.89s332.72,143.92,378.56,143.92c0,0-216.35-58.09-412.51-217C2606.11,1807.81,2622.52,1859.53,2640.06,1880.89Z"/><polygon class="cls-41" points="3327.72 1289.4 3363.26 1428.72 3353.61 1328.87 3327.72 1289.4"/></g></svg>